<svg id="Layer_6" data-name="Layer 6" xmlns="http://www.w3.org/2000/svg" viewBox="0 0 214.03 214.03"><defs><style>.cls-1{fill:#fff;}.cls-2,.cls-3{fill:none;stroke:#fff;stroke-miterlimit:10;}.cls-2{stroke-width:4.27px;}.cls-3{stroke-width:3.21px;}</style></defs><path class="cls-1" d="M1710.15,597c-.05-.1,9.43-5.71,11.61-17.38a29.05,29.05,0,0,0-1-15.06c-4.67,3.53-9.29,6.41-11.46,12.51S1708,589.55,1710.15,597Z" transform="translate(-1588.48 -531.49)"/><path class="cls-1" d="M1714,625.35c-.08,0,9.7-15.83,25.5-19.84s24.66-1.59,24.62-1.62-8.63,12-23,16.84C1724.91,626.14,1714,625.39,1714,625.35Z" transform="translate(-1588.48 -531.49)"/><path class="cls-1" d="M1679.67,682.92c-.09,0,15.48-8.46,24.43-7.76a93.57,93.57,0,0,1,18.45,3.76A47.53,47.53,0,0,1,1679.67,682.92Z" transform="translate(-1588.48 -531.49)"/><path class="cls-1" d="M1683,674.09c-.12,0,15.45-15.47,30.06-21s22.94-3.44,22.9-3.45C1735.53,649.51,1706.2,676.14,1683,674.09Z" transform="translate(-1588.48 -531.49)"/><path class="cls-1" d="M1726.19,591.35s24.9-7.84,37.85-24.72c10.91-14.21,12.31-22.38,12.22-22.42S1735.44,559.43,1726.19,591.35Z" transform="translate(-1588.48 -531.49)"/><path class="cls-1" d="M1683.69,624.92c-.08,0,9.52-20.21,9.25-37.77S1687.06,563,1687,563C1686.78,562.8,1669.19,593.2,1683.69,624.92Z" transform="translate(-1588.48 -531.49)"/><path class="cls-1" d="M1653.72,682.62a66.11,66.11,0,0,0-9.85-34.35c-10.74-16.81-20.93-23.67-20.95-23.67C1622.66,624.44,1620.67,651.88,1653.72,682.62Z" transform="translate(-1588.48 -531.49)"/><path class="cls-1" d="M1677.07,623.74a79.56,79.56,0,0,0-15.34-24.61,82.09,82.09,0,0,0-21.33-16.51C1640.24,582.56,1651.75,611.21,1677.07,623.74Z" transform="translate(-1588.48 -531.49)"/><path class="cls-2" d="M1731.17,586.21c.62-.25-36.24,35.67-54.4,80.13-11.23,23.16-17.16,48.74-20,69.15" transform="translate(-1588.48 -531.49)"/><path class="cls-3" d="M1712.59,591.52c-.12,0-5.59,18.78-9.43,28.62" transform="translate(-1588.48 -531.49)"/><path class="cls-3" d="M1674.13,671.62c5.1-20.86,11.75-63.27,12.33-63.15" transform="translate(-1588.48 -531.49)"/><path class="cls-3" d="M1727,618.31c-.2-.11-24.26,12.58-35.28,19.06" transform="translate(-1588.48 -531.49)"/><path class="cls-3" d="M1694.07,669.19c-16.5,8.43-24.74,18.77-28.16,24.89" transform="translate(-1588.48 -531.49)"/><path class="cls-3" d="M1686.85,681.82c-14,4-18,9.1-20.09,11.28" transform="translate(-1588.48 -531.49)"/><path class="cls-3" d="M1648.9,665c-.05.07,12.46,32.41,10.53,54" transform="translate(-1588.48 -531.49)"/><circle class="cls-3" cx="1695.49" cy="638.51" r="105.41" transform="translate(-1543.37 854.42) rotate(-45)"/></svg>