<svg id="Layer_5" data-name="Layer 5" xmlns="http://www.w3.org/2000/svg" viewBox="0 0 226.96 112.36"><defs><style>.cls-1{fill:#fff;}</style></defs><path class="cls-1" d="M604.13,632.33c-.7,1.12-50.24-9.86-50.12-9.66-.53,1.45,26.81,10.66,46.32,14-.48,1-.91,2-1.3,3-19.86-1.91-47.34-10.4-47.73-9.43-.52,1.46,26.78,11,46.21,14.49a31.39,31.39,0,0,0-.53,3.2c-19.9-2-48-11.11-48.38-10.18-.57,1.48,27.54,11.8,48.2,15.5a29.43,29.43,0,0,0,.35,3.24c-21.26-2.11-50.92-12.09-51.27-11.18-1.1,2.13,41,15.8,53.87,16.47,11.18,1.67,18.12-2.36,19.81-9.68,36.58,4.36,74.81,2.74,111.64-9.73,6.53-2.27,1.51-15.58-4.57-13.47-34.7,11.76-70.32,18.75-106.55,17.23-.4-7.5-4.76-12.09-15.58-13.65S604.12,632.35,604.13,632.33Zm8,17.32c-1.15,8.86-6.63,8.86-9.71,8.19l-.71-.16A128.15,128.15,0,0,0,612,638.79,71.55,71.55,0,0,1,612.11,649.65Z" transform="translate(-507.3 -589.78)"/><path class="cls-1" d="M616.7,702.15q-3.94,0-8.21-.31c-73.1-5.31-93.34-58.58-98.66-81.24-.21-.89-5.07-21.89-.73-24.46a3.23,3.23,0,0,1,3.71.38c16.73,15.11,35,9.18,56.25,2.31,16.4-5.31,35-11.34,55.43-8.16C671.9,598.05,683,643.56,683.12,644a3.06,3.06,0,0,1-6,1.39c-.41-1.71-10.36-42-53.61-48.69-19-3-36.09,6.66-52.6,12-20.23,6.56-39.42,8.7-57.39-3.79.79,10.08,4.84,32.91,20.16,53.23,17,22.53,36.16,33.13,69.09,35.53,52.86,3.83,62.71-31.08,63.19-32.57s10.4-.46,12,.06a3,3,0,0,1,2,3.83c-.13.43-3.43,10.59-14,20.22C657.27,693.19,641.86,702.15,616.7,702.15Z" transform="translate(-507.3 -589.78)"/></svg>