<svg id="Layer_4" data-name="Layer 4" xmlns="http://www.w3.org/2000/svg" viewBox="0 0 236.34 219.36"><defs><style>.cls-1,.cls-4{fill:#fff;}.cls-2,.cls-3{fill:none;stroke:#fff;stroke-miterlimit:10;}.cls-2{stroke-width:6.41px;}.cls-3{stroke-width:4.63px;}.cls-4{font-size:100px;font-family:MyriadPro-Regular, Myriad Pro;}</style></defs><path class="cls-1" d="M937.84,590.47c7.76-1,12.34-5.52,12.36-16.82-.13-11.36,0-.07,0-.06.31-.61-1.33-58.88-3-58.35-1.33,0-1.33,35.26-2.07,55.2a30.78,30.78,0,0,0-3.28-.81c-.85-19.84-1.64-54.4-3-54.39s-1.69,34.47-2.48,53.72q-1.7-.08-3.39,0c-.8-19.25-1.15-53.71-2.5-53.72s-2.16,34.55-3,54.38c-1.12.22-2.21.49-3.3.81-.75-19.93-.75-55.2-2.08-55.19-1.53-.29-3,46.61-3,58.34,0,10.36,4.63,15.75,12.44,16.86m1.75-6.75c-9.35-.19-10-5.26-9.77-8.2,0-.23,0-.44.05-.67a211.74,211.74,0,0,0,21,7.53A74.39,74.39,0,0,1,933.32,583.69Z" transform="translate(-919.13 -512.77)"/><path class="cls-1" d="M939.83,590.67h-9.06c.67,6.41-.9,64.09-1.54,81.92-1.44,27.08-1.92,58.4,6.07,58.8,8-.4,7.51-31.54,6.07-58.62C940.74,655,939.16,597.08,939.83,590.67Zm-2.2,117.18c-.37,9.26-1.43,14-2.2,16.46-.78-2.43-1.19-7.2-1.56-16.46-.35-8.9-.94-20.59,1.2-35.74V672c0-8.66.23-16.51.82-23.25.58,6.74,1,14.59,1.35,23.25l0,0v0C937.2,687.27,938,699,937.63,707.85Z" transform="translate(-919.13 -512.77)"/><path class="cls-1" d="M1154.55,673.15c-.42-11.76-1.53-46.54-1.53-47V514.52c0-1.22.27-1.75-.62-1.75-2.27,0-6.29,3.48-8.88,7.37-12.14,18.21-9.78,96-9.78,96,6.87,1.14,10,6.6,10.7,13.5-.35,13.88-1.08,32.34-1.48,43.48-1.44,27.07-2.2,58.64,5.8,59C1156.75,731.73,1156,700.22,1154.55,673.15Zm-15.7-61.8c-.49-28,1.34-71,7.76-85.32v92.63A19.6,19.6,0,0,0,1138.85,611.35Zm11.43,97.49c-.37,9.26-.87,14-1.64,16.46-.77-2.42-2-7.2-2.39-16.46-.36-8.9-1.78-20.59.36-35.73V673c0-8.66.48-16.51,1.06-23.25.59,6.74,1.07,14.59,1.07,23.25v.08A188.5,188.5,0,0,1,1150.28,708.84Z" transform="translate(-919.13 -512.77)"/><circle class="cls-2" cx="122.78" cy="109.68" r="79.06"/><circle class="cls-3" cx="1041.9" cy="622.46" r="57.16" transform="translate(-939.26 -477.76) rotate(-1.91)"/><text class="cls-4" transform="translate(97.13 141.31)">5</text></svg>