<svg width="80" height="40" viewBox="0 0 80 40" fill="none" xmlns="http://www.w3.org/2000/svg">
<g clip-path="url(#clip0)">
<path d="M15.8251 24.599C15.8251 22.9297 14.6837 21.972 12.6903 21.972H10.8009V29.0083H12.0462V27.2013H12.6903C12.8273 27.2012 12.9641 27.1906 13.0994 27.1696L13.183 27.1583V27.1719L14.3831 29.0129H15.8115L14.347 26.8127L14.4848 26.7517C15.3889 26.3384 15.8251 25.6359 15.8251 24.599ZM12.6474 26.1441H12.0462V23.0314H12.6474C13.9537 23.0314 14.5368 23.5148 14.5368 24.5968C14.5368 25.6788 13.9718 26.1418 12.6474 26.1418V26.1441Z" fill="#FFB800"/>
<path d="M18.6366 26.6365H21.5679V25.6065H18.6366V23.0337H21.9634V21.9697H17.3913V29.0061H22.1149V27.9444H18.6366V26.6365Z" fill="#FFB800"/>
<path d="M27.0396 28.019C25.6835 28.019 24.7004 26.9551 24.7004 25.4868C24.7004 24.0185 25.6835 22.9772 27.0396 22.9772C27.3923 22.9661 27.7422 23.0428 28.0579 23.2005C28.3735 23.3583 28.6449 23.592 28.8476 23.8807L29.7878 23.2144C29.1641 22.3108 28.2917 21.8839 27.0441 21.8839C26.085 21.8839 25.1653 22.2647 24.4871 22.9425C23.809 23.6203 23.428 24.5396 23.428 25.4981C23.428 26.4566 23.809 27.3759 24.4871 28.0537C25.1653 28.7315 26.085 29.1123 27.0441 29.1123C27.6058 29.1337 28.1638 29.0123 28.6658 28.7594C29.1678 28.5066 29.5974 28.1306 29.9144 27.6666L28.9561 27.0048C28.7524 27.3257 28.4685 27.5881 28.1324 27.7659C27.7963 27.9438 27.4197 28.031 27.0396 28.019Z" fill="#FFB800"/>
<path d="M32.579 26.6365H35.5081V25.6065H32.579V23.0337H35.9059V21.9697H31.3315V29.0061H36.055V27.9444H32.579V26.6365Z" fill="#FFB800"/>
<path d="M39.5988 21.9697H37.7094V29.0061H38.957V27.3436H39.5988C41.5628 27.3436 42.7336 26.3406 42.7336 24.6623C42.7336 22.984 41.5583 21.9697 39.5988 21.9697ZM39.5559 26.2819H38.957V23.0314H39.5559C40.8283 23.0314 41.4453 23.5645 41.4453 24.6623C41.4453 25.7601 40.8238 26.2819 39.5514 26.2819H39.5559Z" fill="#FFB800"/>
<path d="M43.4048 23.0337H45.4864V29.0061H46.7339V23.0337H48.8155V21.9697H43.4048V23.0337Z" fill="#FFB800"/>
<path d="M54.3165 26.4061C54.3165 27.5107 53.8351 28.0032 52.7503 28.0032C51.6654 28.0032 51.1682 27.5107 51.1682 26.4061V21.9697H49.9207V26.4875C49.9207 28.1184 50.9806 29.0942 52.7548 29.0942C54.5289 29.0942 55.5686 28.1184 55.5686 26.4875V21.9697H54.321L54.3165 26.4061Z" fill="#FFB800"/>
<path d="M62.3352 24.599C62.3352 22.9297 61.1916 21.972 59.2005 21.972H57.311V29.0083H58.5563V27.2013H59.2005C59.3374 27.2012 59.4742 27.1906 59.6095 27.1696L59.6909 27.1583L60.9023 29.0129H62.3307L60.8661 26.8127L61.004 26.7517C61.899 26.3384 62.3352 25.6359 62.3352 24.599ZM59.1575 26.1441H58.5563V23.0314H59.1575C60.4639 23.0314 61.0447 23.5148 61.0447 24.5968C61.0447 25.6788 60.4819 26.1418 59.1575 26.1418V26.1441Z" fill="#FFB800"/>
<path d="M63.3771 29.0061H64.5456L64.8891 28.1816H68.0216L68.3651 29.0061H69.6579L66.4554 21.9471L63.3771 29.0061ZM65.2892 27.1809L66.4305 24.0185L67.5899 27.1809H65.2892Z" fill="#FFB800"/>
<path d="M7.37012 38.8728C7.28399 39.0287 7.15664 39.1579 7.00199 39.2464C6.84733 39.3348 6.67132 39.3791 6.49321 39.3743C5.87621 39.3743 5.46036 38.8886 5.46036 38.2449C5.46036 37.6011 5.87621 37.1335 6.49321 37.1335C6.65858 37.1281 6.82236 37.1672 6.96747 37.2467C7.11257 37.3261 7.23368 37.4431 7.31814 37.5853L7.85603 37.2058C7.71384 36.9783 7.51271 36.7935 7.27398 36.6711C7.03524 36.5486 6.76779 36.4929 6.49999 36.51C6.26543 36.5016 6.03157 36.5405 5.81238 36.6244C5.59319 36.7083 5.39316 36.8355 5.22424 36.9983C5.05531 37.1612 4.92095 37.3564 4.82919 37.5723C4.73742 37.7883 4.69012 38.0204 4.69012 38.255C4.69012 38.4896 4.73742 38.7218 4.82919 38.9377C4.92095 39.1536 5.05531 39.3488 5.22424 39.5117C5.39316 39.6746 5.59319 39.8018 5.81238 39.8856C6.03157 39.9695 6.26543 40.0084 6.49999 40C6.78225 40.011 7.06241 39.9472 7.31206 39.8151C7.56171 39.683 7.77199 39.4873 7.92158 39.2478L7.37012 38.8728Z" fill="#FFB800"/>
<path d="M9.36122 36.5191L7.86505 39.9593H8.54307L8.70354 39.5731H10.0867L10.2472 39.9593H10.9817L9.4245 36.5236L9.36122 36.5191ZM8.93633 38.9835L9.38834 37.7818L9.84036 38.9835H8.93633Z" fill="#FFB800"/>
<path d="M10.7195 37.1651H11.6914V39.9548H12.392V37.1651H13.3638V36.5507H10.7195V37.1651Z" fill="#FFB800"/>
<path d="M14.582 38.848H15.9494V38.2471H14.582V37.1651H16.1347V36.5507H13.8814V39.9548H16.2048V39.3382H14.582V38.848Z" fill="#FFB800"/>
<path d="M19.3237 37.836C19.3237 37.0048 18.7519 36.5485 17.8004 36.5485H16.8579V39.9594H17.5585V39.1123H17.8004C17.8669 39.1122 17.9333 39.1077 17.9992 39.0987L18.562 39.9594H19.3734L18.666 38.8977C18.8738 38.8129 19.0493 38.6644 19.1675 38.4737C19.2856 38.283 19.3403 38.0597 19.3237 37.836ZM17.78 38.4979H17.554V37.1651H17.78C18.3405 37.1651 18.6004 37.3549 18.6004 37.8428C18.6004 38.3307 18.3541 38.4979 17.78 38.4979Z" fill="#FFB800"/>
<path d="M20.7905 36.5507H20.0898V39.9548H20.7905V36.5507Z" fill="#FFB800"/>
<path d="M23.7896 38.5973L21.6696 36.5191H21.5995V39.9548H22.2572L22.2075 37.906L24.332 39.9842H24.402V36.5507H23.7444L23.7896 38.5973Z" fill="#FFB800"/>
<path d="M26.6915 38.7486H27.5119V39.2478C27.3015 39.3351 27.0753 39.3782 26.8475 39.3743C26.6965 39.3843 26.5451 39.3619 26.4035 39.3087C26.2618 39.2554 26.1332 39.1726 26.0262 39.0656C25.9192 38.9587 25.8363 38.8302 25.7831 38.6886C25.7298 38.547 25.7074 38.3958 25.7174 38.2449C25.7174 37.6101 26.1175 37.1335 26.7345 37.1335C26.8767 37.1247 27.0191 37.1481 27.151 37.2021C27.2829 37.2561 27.4009 37.3392 27.4961 37.4452L27.9707 36.9731C27.6905 36.6523 27.2927 36.5033 26.7345 36.5033C26.5033 36.494 26.2728 36.5327 26.0575 36.617C25.8421 36.7013 25.6466 36.8294 25.4833 36.993C25.3199 37.1567 25.1923 37.3525 25.1085 37.5679C25.0247 37.7834 24.9866 38.0139 24.9965 38.2449C24.9965 39.2523 25.731 39.9932 26.8452 39.9932C27.3114 40.0023 27.7686 39.864 28.1515 39.5979V38.1251H26.6893L26.6915 38.7486Z" fill="#FFB800"/>
<path d="M30.3099 37.8812C30.1559 37.8812 30.0081 37.9423 29.8992 38.0512C29.7903 38.1601 29.7291 38.3077 29.7291 38.4617C29.7291 38.6157 29.7903 38.7633 29.8992 38.8722C30.0081 38.9811 30.1559 39.0422 30.3099 39.0422C30.3862 39.0422 30.4617 39.0272 30.5322 38.998C30.6027 38.9689 30.6667 38.9261 30.7206 38.8722C30.7746 38.8183 30.8173 38.7543 30.8465 38.6839C30.8757 38.6134 30.8907 38.5379 30.8907 38.4617C30.8907 38.3855 30.8757 38.31 30.8465 38.2395C30.8173 38.1691 30.7746 38.1051 30.7206 38.0512C30.6667 37.9973 30.6027 37.9545 30.5322 37.9254C30.4617 37.8962 30.3862 37.8812 30.3099 37.8812Z" fill="#FFB800"/>
<path d="M34.1001 38.7486H34.9205V39.2478C34.71 39.3351 34.4838 39.3782 34.256 39.3743C34.105 39.3843 33.9537 39.3619 33.812 39.3087C33.6704 39.2554 33.5418 39.1726 33.4348 39.0656C33.3278 38.9587 33.2449 38.8302 33.1916 38.6886C33.1384 38.547 33.116 38.3958 33.126 38.2449C33.126 37.6101 33.526 37.1335 34.143 37.1335C34.2853 37.1247 34.4277 37.1481 34.5596 37.2021C34.6915 37.2561 34.8095 37.3392 34.9047 37.4452L35.3793 36.9731C35.099 36.6523 34.7013 36.5033 34.143 36.5033C33.9119 36.494 33.6814 36.5327 33.466 36.617C33.2507 36.7013 33.0552 36.8294 32.8918 36.993C32.7285 37.1567 32.6009 37.3525 32.5171 37.5679C32.4333 37.7834 32.3952 38.0139 32.405 38.2449C32.405 39.2523 33.1396 39.9932 34.2538 39.9932C34.7201 40.0028 35.1774 39.8644 35.5601 39.5979V38.1251H34.0978L34.1001 38.7486Z" fill="#FFB800"/>
<path d="M37.3727 36.5191L35.8743 39.9593H36.5523L36.7105 39.5731H38.0937L38.2541 39.9593H38.9909L37.4337 36.5236L37.3727 36.5191ZM36.9478 38.9835L37.3998 37.7818L37.8518 38.9835H36.9478Z" fill="#FFB800"/>
<path d="M41.9177 37.836C41.9177 37.0048 41.3481 36.5485 40.3944 36.5485H39.4542V39.9594H40.1548V39.1123H40.3944C40.4616 39.1123 40.5288 39.1077 40.5955 39.0987L41.156 39.9594H41.9674L41.2622 38.8977C41.4698 38.8128 41.6451 38.6643 41.7629 38.4735C41.8806 38.2827 41.9348 38.0595 41.9177 37.836ZM40.374 38.4979H40.148V37.1651H40.374C40.9368 37.1651 41.1967 37.3549 41.1967 37.8428C41.1967 38.3307 40.9549 38.4979 40.374 38.4979Z" fill="#FFB800"/>
<path d="M44.3947 38.3578L42.7178 36.5146H42.6613V39.9593H43.3393L43.3144 38.0867C43.3144 38.0867 43.5201 38.3872 43.6805 38.5679L44.3586 39.3223H44.4241L45.1021 38.5679C45.2626 38.3872 45.4683 38.0867 45.4683 38.0867L45.4434 39.9593H46.1214V36.5146H46.0627L44.3947 38.3578Z" fill="#FFB800"/>
<path d="M47.9385 36.5191L46.4401 39.9593H47.1181L47.2786 39.5731H48.6617L48.8222 39.9593H49.559L47.9995 36.5236L47.9385 36.5191ZM47.5091 38.9835L47.9611 37.7818L48.4131 38.9835H47.5091Z" fill="#FFB800"/>
<path d="M50.0743 37.1651H51.3626L49.7986 39.8938V39.9548H52.3593V39.3382H50.8857L52.4451 36.6095V36.5507H50.0743V37.1651Z" fill="#FFB800"/>
<path d="M54.4702 37.8812C54.3161 37.8812 54.1684 37.9423 54.0595 38.0512C53.9505 38.1601 53.8893 38.3077 53.8893 38.4617C53.8893 38.6157 53.9505 38.7633 54.0595 38.8722C54.1684 38.9811 54.3161 39.0422 54.4702 39.0422C54.5465 39.0422 54.622 39.0272 54.6925 38.998C54.7629 38.9689 54.827 38.9261 54.8809 38.8722C54.9348 38.8183 54.9776 38.7543 55.0068 38.6839C55.036 38.6134 55.051 38.5379 55.051 38.4617C55.051 38.3855 55.036 38.31 55.0068 38.2395C54.9776 38.1691 54.9348 38.1051 54.8809 38.0512C54.827 37.9973 54.7629 37.9545 54.6925 37.9254C54.622 37.8962 54.5465 37.8812 54.4702 37.8812Z" fill="#FFB800"/>
<path d="M57.3834 38.848H58.7508V38.2471H57.3834V37.1651H58.9361V36.5507H56.6805V39.9548H59.0062V39.3382H57.3834V38.848Z" fill="#FFB800"/>
<path d="M60.9363 38.6334L60.0842 36.5507H59.3339L60.8865 39.9842H60.9566L62.4482 36.5507H61.768L60.9363 38.6334Z" fill="#FFB800"/>
<path d="M63.6122 38.848H64.9795V38.2471H63.6122V37.1651H65.1649V36.5507H62.9116V39.9548H65.2349V39.3382H63.6122V38.848Z" fill="#FFB800"/>
<path d="M68.0781 38.5973L65.9581 36.5191H65.8881V39.9548H66.5457L66.4938 37.906L68.6182 39.9842H68.6883V36.5507H68.0329L68.0781 38.5973Z" fill="#FFB800"/>
<path d="M69.2059 37.1651H70.1777V39.9548H70.8806V37.1651H71.8524V36.5507H69.2059V37.1651Z" fill="#FFB800"/>
<path d="M73.8209 38.2923L72.944 36.5507H72.1688L73.4616 38.8728V39.9548H74.1667V38.8231L75.3804 36.5507H74.6639L73.8209 38.2923Z" fill="#FFB800"/>
<path d="M51.0032 36.1148C51.1679 36.1148 51.3015 35.9813 51.3015 35.8166C51.3015 35.6519 51.1679 35.5184 51.0032 35.5184C50.8384 35.5184 50.7048 35.6519 50.7048 35.8166C50.7048 35.9813 50.8384 36.1148 51.0032 36.1148Z" fill="#FFB800"/>
<path d="M5.75638 24.9221C5.60233 24.9221 5.45459 24.9833 5.34566 25.0921C5.23674 25.201 5.17554 25.3487 5.17554 25.5026C5.17554 25.6566 5.23674 25.8042 5.34566 25.9131C5.45459 26.022 5.60233 26.0831 5.75638 26.0831C5.91043 26.0831 6.05816 26.022 6.16709 25.9131C6.27602 25.8042 6.33721 25.6566 6.33721 25.5026C6.33721 25.3487 6.27602 25.201 6.16709 25.0921C6.05816 24.9833 5.91043 24.9221 5.75638 24.9221Z" fill="#FFB800"/>
<path d="M74.2481 24.9221C74.0941 24.9221 73.9463 24.9833 73.8374 25.0921C73.7285 25.201 73.6673 25.3487 73.6673 25.5026C73.6673 25.6566 73.7285 25.8042 73.8374 25.9131C73.9463 26.022 74.0941 26.0831 74.2481 26.0831C74.3244 26.0831 74.3999 26.0681 74.4704 26.039C74.5409 26.0098 74.6049 25.967 74.6588 25.9131C74.7128 25.8592 74.7555 25.7952 74.7847 25.7248C74.8139 25.6543 74.8289 25.5789 74.8289 25.5026C74.8289 25.4264 74.8139 25.3509 74.7847 25.2805C74.7555 25.21 74.7128 25.146 74.6588 25.0921C74.6049 25.0382 74.5409 24.9955 74.4704 24.9663C74.3999 24.9371 74.3244 24.9221 74.2481 24.9221Z" fill="#FFB800"/>
<path d="M79.4689 21.276C78.3597 21.2748 77.2964 20.8339 76.5121 20.0501C75.7278 19.2662 75.2867 18.2034 75.2855 17.0949V16.5663H50.3749L50.3139 14.5333C50.3146 14.4357 50.2949 14.3391 50.256 14.2496C50.217 14.1601 50.1598 14.0798 50.0879 14.0138V10.7316C50.5986 9.21594 52.0858 4.6327 52.0858 2.61553C52.0858 1.29635 51.4077 0.636768 50.8563 0.31375C50.4973 0.113792 50.0943 0.00591367 49.6833 -0.000232418H49.5703C49.1592 0.00506147 48.756 0.112995 48.3973 0.31375C47.8346 0.636768 47.1656 1.29635 47.1656 2.61553C47.1656 4.64851 48.655 9.22498 49.168 10.7362V14.0115C49.0933 14.0765 49.0334 14.1567 48.9921 14.2467C48.9508 14.3366 48.9291 14.4343 48.9284 14.5333L48.8674 16.5663H40.8306L40.7673 14.4542C40.7678 14.3524 40.7481 14.2514 40.7093 14.1572C40.6705 14.0629 40.6134 13.9774 40.5413 13.9053C40.5135 13.8794 40.4841 13.8552 40.4531 13.8331V8.19945H42.3765C42.5597 8.19885 42.7353 8.12584 42.8648 7.99634C42.9944 7.86684 43.0675 7.69137 43.0681 7.50824L42.6454 0.69098C42.6448 0.507842 42.5718 0.332373 42.4422 0.202875C42.3126 0.0733759 42.1371 0.000363157 41.9538 -0.000232418H38.0303C37.8471 0.000363157 37.6715 0.0733759 37.542 0.202875C37.4124 0.332373 37.3394 0.507842 37.3388 0.69098L36.9161 7.50824C36.9167 7.69137 36.9898 7.86684 37.1193 7.99634C37.2489 8.12584 37.4245 8.19885 37.6077 8.19945H39.531V13.8331C39.4997 13.8546 39.4702 13.8788 39.4429 13.9053C39.371 13.9771 39.3141 14.0623 39.2753 14.1561C39.2365 14.2499 39.2167 14.3505 39.2169 14.452L39.1536 16.5663H31.2049L31.1394 14.4542C31.14 14.3523 31.1204 14.2513 31.0816 14.1571C31.0428 14.0629 30.9856 13.9773 30.9134 13.9053C30.8856 13.8794 30.8561 13.8552 30.8252 13.8331V8.56087H31.4332C31.6908 8.54743 31.9326 8.43238 32.1055 8.24096C32.2784 8.04955 32.3682 7.7974 32.3553 7.53986C32.3553 7.53986 31.5507 -0.0228211 31.0105 -0.000232418L31.3202 6.38558C31.3202 6.59167 31.2383 6.78931 31.0925 6.93504C30.9467 7.08076 30.7489 7.16263 30.5427 7.16263H31.3563L31.3269 6.50078L31.3586 7.16263H29.3652L29.3991 6.50078L29.3675 7.16263H30.1811C29.9751 7.16203 29.7777 7.07998 29.632 6.93438C29.4863 6.78878 29.4042 6.59148 29.4036 6.38558L29.7133 -0.000232418C29.1754 -0.0273388 28.3708 7.52856 28.3708 7.52856C28.3578 7.78611 28.4477 8.03825 28.6206 8.22967C28.7934 8.42109 29.0352 8.53614 29.2929 8.54957H29.9031V13.8308C29.8715 13.8529 29.8413 13.8771 29.8127 13.9031C29.6682 14.0484 29.587 14.2449 29.5867 14.4497L29.5234 16.564H4.71227V17.0926C4.71107 18.2011 4.26994 19.264 3.48565 20.0478C2.70137 20.8317 1.638 21.2726 0.528861 21.2738H0V29.7084H0.528861C1.63761 29.7096 2.70064 30.1502 3.48485 30.9335C4.26907 31.7169 4.71047 32.7791 4.71227 33.8873V34.4181H75.2855V33.8873C75.2867 32.7789 75.7279 31.7164 76.5122 30.9329C77.2966 30.1494 78.3599 29.709 79.4689 29.7084H79.9977V21.276H79.4689ZM41.6329 0.695495C41.6678 0.694291 41.7026 0.700014 41.7353 0.712333C41.768 0.724651 41.7979 0.743323 41.8234 0.767267C41.8488 0.791211 41.8692 0.819952 41.8835 0.851833C41.8977 0.883714 41.9055 0.918103 41.9064 0.953009L42.0623 6.302C42.0635 6.3369 42.0578 6.37169 42.0455 6.40436C42.0332 6.43703 42.0145 6.46694 41.9905 6.49235C41.9666 6.51777 41.9378 6.53819 41.9059 6.55243C41.874 6.56667 41.8396 6.57445 41.8047 6.57533C41.7343 6.57716 41.6661 6.55111 41.6149 6.50287C41.5636 6.45464 41.5336 6.38812 41.5312 6.31782L41.3753 0.96882C41.3741 0.933923 41.3798 0.899133 41.3921 0.866461C41.4044 0.833789 41.4231 0.803883 41.4471 0.778469C41.471 0.753055 41.4998 0.732637 41.5317 0.718396C41.5636 0.704154 41.598 0.69637 41.6329 0.695495ZM40.5413 0.959786C40.5413 0.889093 40.5694 0.821294 40.6194 0.771307C40.6694 0.72132 40.7373 0.693238 40.808 0.693238C40.8787 0.693238 40.9465 0.72132 40.9966 0.771307C41.0466 0.821294 41.0747 0.889093 41.0747 0.959786V6.3133C41.0747 6.38399 41.0466 6.45179 40.9966 6.50177C40.9465 6.55176 40.8787 6.57984 40.808 6.57984C40.7373 6.57984 40.6694 6.55176 40.6194 6.50177C40.5694 6.45179 40.5413 6.38399 40.5413 6.3133V0.959786ZM38.349 6.31782C38.3412 6.38404 38.3089 6.44493 38.2584 6.4885C38.2079 6.53206 38.1429 6.55513 38.0762 6.55315C38.0095 6.55116 37.946 6.52427 37.8982 6.47778C37.8504 6.43128 37.8217 6.36857 37.8179 6.302L37.9738 0.953009C37.9717 0.916111 37.9773 0.879174 37.9902 0.844547C38.0032 0.809919 38.0231 0.778356 38.0489 0.751864C38.0747 0.725371 38.1057 0.70453 38.14 0.69066C38.1743 0.676789 38.2111 0.670195 38.248 0.671296C38.285 0.672396 38.3213 0.681165 38.3547 0.69705C38.3881 0.712935 38.4178 0.735586 38.442 0.763565C38.4661 0.791544 38.4842 0.82424 38.4951 0.859575C38.5059 0.89491 38.5093 0.932113 38.505 0.96882L38.349 6.31782ZM39.3796 6.31782C39.3796 6.38851 39.3515 6.45631 39.3015 6.50629C39.2515 6.55628 39.1837 6.58436 39.1129 6.58436C39.0422 6.58436 38.9744 6.55628 38.9243 6.50629C38.8743 6.45631 38.8462 6.38851 38.8462 6.31782V0.964301C38.8462 0.893608 38.8743 0.825813 38.9243 0.775825C38.9744 0.725838 39.0422 0.697756 39.1129 0.697756C39.1837 0.697756 39.2515 0.725838 39.3015 0.775825C39.3515 0.825813 39.3796 0.893608 39.3796 0.964301V6.31782ZM50.68 0.609661C51.3851 1.014 51.7422 1.6894 51.7422 2.62005C51.7422 4.22159 50.7455 7.58956 50.1082 9.56606C51.3286 3.33385 50.6845 1.15405 50.1398 0.395069C50.3264 0.440472 50.5058 0.511149 50.6732 0.605142L50.68 0.609661ZM49.776 0.508012C50.2144 1.02981 51.0507 2.92952 49.776 9.46893V0.508012ZM47.482 2.62005C47.482 1.6894 47.8413 1.014 48.5442 0.609661C48.7137 0.513913 48.8954 0.441717 49.0844 0.395069C48.5397 1.15405 47.8978 3.33159 49.116 9.56381C48.49 7.57826 47.491 4.21707 47.491 2.61553L47.482 2.62005ZM49.4415 0.505751V9.46441C48.1736 2.9137 49.0143 1.01852 49.4505 0.501236L49.4415 0.505751ZM39.6825 0.957525C39.6825 0.886832 39.7106 0.819036 39.7606 0.769049C39.8106 0.719062 39.8784 0.69098 39.9491 0.69098C40.0199 0.69098 40.0877 0.719062 40.1377 0.769049C40.1877 0.819036 40.2158 0.886832 40.2158 0.957525V6.31104C40.2158 6.38173 40.1877 6.44953 40.1377 6.49952C40.0877 6.5495 40.0199 6.57758 39.9491 6.57758C39.8784 6.57758 39.8106 6.5495 39.7606 6.49952C39.7106 6.44953 39.6825 6.38173 39.6825 6.31104V0.957525ZM78.9287 24.5175V28.6761C77.7301 28.8044 76.6116 29.339 75.7592 30.1909C74.9069 31.0428 74.372 32.1608 74.2436 33.3587H5.74512C5.61672 32.1608 5.08185 31.0428 4.22946 30.1909C3.37708 29.339 2.25857 28.8044 1.05998 28.6761V22.3061C2.25842 22.1773 3.3767 21.6426 4.22901 20.7908C5.08131 19.9389 5.61632 18.8212 5.74512 17.6234H74.2526C74.3814 18.8212 74.9164 19.9389 75.7687 20.7908C76.621 21.6426 77.7393 22.1773 78.9378 22.3061L78.9287 24.5175Z" fill="#FFB800"/>
</g>
<defs>
<clipPath id="clip0">
<rect width="80" height="40" fill="white"/>
</clipPath>
</defs>
</svg>
