<svg id="Layer_7" data-name="Layer 7" xmlns="http://www.w3.org/2000/svg" viewBox="0 0 220.24 165.75"><defs><style>.cls-1{fill:none;stroke:#fff;stroke-width:6px;}</style></defs><line class="cls-1" x1="97.32" y1="163.63" x2="56.62" y2="122.93"/><path class="cls-1" d="M1421.31,571.8a222.54,222.54,0,0,1,27.6-13.23q15.19,15.21,30.4,30.4a224,224,0,0,1-13.23,27.61c-15.48,29.63-41.41,41.16-61.23,29A11.54,11.54,0,0,1,1392.28,633C1380.12,613.21,1391.68,587.29,1421.31,571.8Z" transform="translate(-1262.59 -555.04)"/><line class="cls-1" x1="133.59" y1="86.66" x2="91.16" y2="129.09"/><path class="cls-1" d="M1353.87,684a20.23,20.23,0,0,0,0,28.59" transform="translate(-1262.59 -555.04)"/><path class="cls-1" d="M1353.85,684a20.22,20.22,0,0,1-28.6,0" transform="translate(-1262.59 -555.04)"/><line class="cls-1" x1="126.75" y1="58.97" x2="203.73" y2="58.97"/><line class="cls-1" x1="122.92" y1="163.63" x2="163.62" y2="122.93"/><path class="cls-1" d="M1324.12,571.8a222.54,222.54,0,0,0-27.6-13.23L1266.13,589a222.45,222.45,0,0,0,13.22,27.61c15.48,29.63,41.41,41.16,61.23,29A11.54,11.54,0,0,0,1353.15,633C1365.31,613.21,1353.75,587.29,1324.12,571.8Z" transform="translate(-1262.59 -555.04)"/><line class="cls-1" x1="86.65" y1="86.66" x2="129.08" y2="129.09"/><path class="cls-1" d="M1391.56,684a20.23,20.23,0,0,1,0,28.59" transform="translate(-1262.59 -555.04)"/><path class="cls-1" d="M1391.58,684a20.22,20.22,0,0,0,28.6,0" transform="translate(-1262.59 -555.04)"/><line class="cls-1" x1="92.24" y1="58.97" x2="15.26" y2="58.97"/></svg>